<svg width="133" height="46" viewBox="0 0 133 46" fill="none" xmlns="http://www.w3.org/2000/svg">
<path d="M53.7812 17.2461L55.2266 16.7383C56.099 18.2487 57.4531 19.0039 59.2891 19.0039C60.3047 19.0039 61.1315 18.7565 61.7695 18.2617C62.4076 17.7669 62.7266 17.0898 62.7266 16.2305C62.7266 15.8008 62.6354 15.4232 62.4531 15.0977C62.2708 14.7591 61.9779 14.4661 61.5742 14.2188C61.1836 13.9714 60.819 13.776 60.4805 13.6328C60.1419 13.4896 59.6797 13.3203 59.0938 13.125C58.625 12.9688 58.293 12.8581 58.0977 12.793C57.9023 12.7279 57.5898 12.6107 57.1602 12.4414C56.7435 12.2721 56.431 12.1224 56.2227 11.9922C56.0273 11.862 55.7799 11.6862 55.4805 11.4648C55.181 11.2305 54.9596 10.9961 54.8164 10.7617C54.6862 10.5273 54.5625 10.2474 54.4453 9.92188C54.3411 9.58333 54.2891 9.22526 54.2891 8.84766C54.2891 7.6888 54.7318 6.76432 55.6172 6.07422C56.5026 5.37109 57.6875 5.01953 59.1719 5.01953C60.3047 5.01953 61.2878 5.27995 62.1211 5.80078C62.9674 6.32161 63.5729 6.97266 63.9375 7.75391L62.6094 8.22266C61.8411 6.97266 60.6823 6.34766 59.1328 6.34766C58.1172 6.34766 57.3229 6.57552 56.75 7.03125C56.1771 7.48698 55.8906 8.09245 55.8906 8.84766C55.8906 9.1862 55.9688 9.50521 56.125 9.80469C56.2812 10.0911 56.4505 10.3255 56.6328 10.5078C56.8281 10.6771 57.1341 10.8659 57.5508 11.0742C57.9805 11.2695 58.3125 11.4128 58.5469 11.5039C58.7943 11.582 59.1914 11.7122 59.7383 11.8945C59.8685 11.9336 59.9661 11.9661 60.0312 11.9922C60.6693 12.2005 61.2031 12.4023 61.6328 12.5977C62.0625 12.793 62.5052 13.0534 62.9609 13.3789C63.4167 13.7044 63.7552 14.1016 63.9766 14.5703C64.2109 15.026 64.3281 15.5599 64.3281 16.1719C64.3281 17.487 63.8659 18.5156 62.9414 19.2578C62.0299 19.987 60.7995 20.3516 59.25 20.3516C57.9219 20.3516 56.7956 20.0716 55.8711 19.5117C54.9466 18.9518 54.25 18.1966 53.7812 17.2461ZM66.5195 10.7617V9.49219H68.3555V6.13281H69.8789V9.49219H72.6523V10.7617H69.8789V16.9141C69.8789 17.5651 70.0026 18.0273 70.25 18.3008C70.4974 18.5742 70.8945 18.7109 71.4414 18.7109H72.6523V20H71.2461C69.319 20 68.3555 19.0169 68.3555 17.0508V10.7617H66.5195ZM75.1172 14.668C75.1172 13.0273 75.5599 11.6992 76.4453 10.6836C77.3307 9.65495 78.4766 9.14062 79.8828 9.14062C81.3151 9.14062 82.4414 9.64193 83.2617 10.6445C84.082 11.6341 84.4922 12.9036 84.4922 14.4531C84.4922 14.6354 84.4792 14.8958 84.4531 15.2344H76.6406C76.6406 16.2891 76.9336 17.194 77.5195 17.9492C78.1055 18.7044 78.9193 19.082 79.9609 19.082C80.638 19.082 81.237 18.9258 81.7578 18.6133C82.2786 18.2878 82.6823 17.8581 82.9688 17.3242L84.2578 17.7148C83.9323 18.4831 83.4049 19.1146 82.6758 19.6094C81.9466 20.1042 81.0417 20.3516 79.9609 20.3516C78.5026 20.3516 77.3307 19.8307 76.4453 18.7891C75.5599 17.7474 75.1172 16.3737 75.1172 14.668ZM76.6797 14.082H82.9688C82.9688 13.0534 82.6888 12.1875 82.1289 11.4844C81.569 10.7682 80.8203 10.4102 79.8828 10.4102C78.9323 10.4102 78.1641 10.7747 77.5781 11.5039C77.0052 12.2331 76.7057 13.0924 76.6797 14.082ZM87.875 20V9.49219H89.3203V11.0156C89.5286 10.5469 89.8737 10.1172 90.3555 9.72656C90.8372 9.33594 91.4557 9.14062 92.2109 9.14062C92.7708 9.14062 93.2656 9.23177 93.6953 9.41406V10.7812C93.2266 10.599 92.7318 10.5078 92.2109 10.5078C91.3255 10.5078 90.6354 10.8398 90.1406 11.5039C89.6458 12.168 89.3984 13.0469 89.3984 14.1406V20H87.875ZM96.4336 20V4.82422H97.918V20H96.4336ZM102.434 7.12891V5.15625H104.348V7.12891H102.434ZM102.668 20V9.49219H104.152V20H102.668ZM108.648 20V9.49219H110.133V11.2891H110.152C110.309 10.7682 110.693 10.2799 111.305 9.82422C111.917 9.36849 112.646 9.14062 113.492 9.14062C114.469 9.14062 115.27 9.44661 115.895 10.0586C116.533 10.6706 116.852 11.7188 116.852 13.2031V20H115.328V13.457C115.328 11.4258 114.599 10.4102 113.141 10.4102C112.333 10.4102 111.637 10.7357 111.051 11.3867C110.465 12.0378 110.172 12.819 110.172 13.7305V20H108.648ZM121.68 14.5508C121.68 15.7878 121.953 16.7904 122.5 17.5586C123.047 18.3138 123.763 18.6914 124.648 18.6914C125.547 18.6914 126.257 18.3268 126.777 17.5977C127.311 16.8685 127.578 15.8464 127.578 14.5312C127.578 13.2552 127.305 12.2526 126.758 11.5234C126.224 10.7812 125.534 10.4102 124.688 10.4102C123.776 10.4102 123.047 10.8008 122.5 11.582C121.953 12.3503 121.68 13.3398 121.68 14.5508ZM120.156 14.5703C120.156 12.9427 120.56 11.6341 121.367 10.6445C122.174 9.64193 123.216 9.14062 124.492 9.14062C125.299 9.14062 125.957 9.34896 126.465 9.76562C126.986 10.1823 127.357 10.6641 127.578 11.2109V9.49219H129.062V18.7695C129.062 20.7617 128.704 22.2396 127.988 23.2031C127.285 24.1797 126.159 24.668 124.609 24.668C122.93 24.668 121.628 24.0299 120.703 22.7539L121.758 22.0703C122.565 22.9818 123.529 23.4375 124.648 23.4375C125.573 23.4375 126.289 23.0729 126.797 22.3438C127.318 21.6276 127.578 20.6641 127.578 19.4531V17.9492C127.305 18.5352 126.908 19.0169 126.387 19.3945C125.879 19.7721 125.26 19.9609 124.531 19.9609C123.203 19.9609 122.142 19.4596 121.348 18.457C120.553 17.4414 120.156 16.1458 120.156 14.5703Z" fill="#0E0624"/>
<path d="M54.7383 42V26.5508H64.582V28.7578H57.3164V33.1719H63.8203V35.3398H57.3164V42H54.7383ZM67.418 42V26.043H69.8789V42H67.418ZM73.125 36.3164C73.125 34.5065 73.6198 33.0677 74.6094 32C75.612 30.9193 76.8685 30.3789 78.3789 30.3789C79.8633 30.3789 81.0872 30.9193 82.0508 32C83.0143 33.0807 83.4961 34.487 83.4961 36.2188C83.4961 36.5573 83.4766 36.8893 83.4375 37.2148H75.625C75.625 38.0742 75.8789 38.8164 76.3867 39.4414C76.9076 40.0534 77.6172 40.3594 78.5156 40.3594C79.1406 40.3594 79.6875 40.2096 80.1562 39.9102C80.638 39.5977 81.0026 39.2005 81.25 38.7188L83.3203 39.4219C82.9557 40.2552 82.3633 40.9518 81.543 41.5117C80.7227 42.0716 79.7005 42.3516 78.4766 42.3516C76.901 42.3516 75.612 41.8047 74.6094 40.7109C73.6198 39.6172 73.125 38.1523 73.125 36.3164ZM75.6641 35.4766H80.9766C80.9766 34.6172 80.7487 33.888 80.293 33.2891C79.8372 32.6771 79.1992 32.3711 78.3789 32.3711C77.5586 32.3711 76.901 32.6836 76.4062 33.3086C75.9245 33.9206 75.6771 34.6432 75.6641 35.4766ZM85.0234 42L89.0273 36.2188L85.2188 30.7305H88.207L89.6523 33.1719C90.0169 33.8229 90.2773 34.2786 90.4336 34.5391H90.5117C90.7201 34.1615 90.974 33.7057 91.2734 33.1719L92.7188 30.7305H95.7266L91.918 36.2188L95.9414 42H93.0117L91.3516 39.2852C91.2474 39.1159 91.1042 38.8815 90.9219 38.582C90.7396 38.2826 90.6029 38.0482 90.5117 37.8789H90.4336C90.3815 37.9701 90.1016 38.4388 89.5938 39.2852L87.9336 42H85.0234ZM99.9102 36.375C99.9102 37.6771 100.177 38.6471 100.711 39.2852C101.245 39.9232 101.87 40.2422 102.586 40.2422C103.289 40.2422 103.908 39.9232 104.441 39.2852C104.975 38.6471 105.242 37.6771 105.242 36.375C105.242 35.0469 104.975 34.0703 104.441 33.4453C103.908 32.8073 103.289 32.4883 102.586 32.4883C101.883 32.4883 101.258 32.8073 100.711 33.4453C100.177 34.0703 99.9102 35.0469 99.9102 36.375ZM97.3711 36.375C97.3711 34.6953 97.8138 33.276 98.6992 32.1172C99.5846 30.9583 100.88 30.3789 102.586 30.3789C104.279 30.3789 105.568 30.9583 106.453 32.1172C107.339 33.276 107.781 34.6953 107.781 36.375C107.781 36.8958 107.729 37.4167 107.625 37.9375C107.534 38.4583 107.365 38.9922 107.117 39.5391C106.87 40.0729 106.557 40.5482 106.18 40.9648C105.802 41.3685 105.301 41.7005 104.676 41.9609C104.064 42.2214 103.367 42.3516 102.586 42.3516C101.818 42.3516 101.121 42.2279 100.496 41.9805C99.8841 41.7201 99.3828 41.3945 98.9922 41.0039C98.6146 40.6003 98.2956 40.1315 98.0352 39.5977C97.7878 39.0508 97.612 38.5169 97.5078 37.9961C97.4167 37.4622 97.3711 36.9219 97.3711 36.375ZM110.812 42V30.7305H113.195V31.9414C113.443 31.5247 113.794 31.1602 114.25 30.8477C114.719 30.5352 115.272 30.3789 115.91 30.3789C116.509 30.3789 116.997 30.4635 117.375 30.6328V32.8789C116.88 32.7227 116.392 32.6445 115.91 32.6445C115.064 32.6445 114.413 32.9766 113.957 33.6406C113.514 34.2917 113.293 35.1641 113.293 36.2578V42H110.812ZM118.824 39.6562L120.602 38.6211C121.383 39.7669 122.398 40.3398 123.648 40.3398C124.26 40.3398 124.742 40.2227 125.094 39.9883C125.458 39.7409 125.641 39.4154 125.641 39.0117C125.641 38.6862 125.491 38.3997 125.191 38.1523C124.905 37.9049 124.599 37.7227 124.273 37.6055C123.948 37.4753 123.46 37.306 122.809 37.0977C122.691 37.0586 122.607 37.0326 122.555 37.0195C122.086 36.8633 121.689 36.7135 121.363 36.5703C121.051 36.4141 120.719 36.2122 120.367 35.9648C120.016 35.7044 119.749 35.3854 119.566 35.0078C119.384 34.6172 119.293 34.168 119.293 33.6602C119.293 32.6706 119.71 31.8763 120.543 31.2773C121.376 30.6784 122.411 30.3789 123.648 30.3789C124.573 30.3789 125.445 30.6263 126.266 31.1211C127.086 31.6029 127.698 32.2214 128.102 32.9766L126.461 33.9727C125.693 32.918 124.762 32.3906 123.668 32.3906C123.069 32.3906 122.607 32.5143 122.281 32.7617C121.969 32.9961 121.812 33.3086 121.812 33.6992C121.812 34.0247 121.949 34.3177 122.223 34.5781C122.509 34.8255 122.802 35.0078 123.102 35.125C123.401 35.2422 123.824 35.3919 124.371 35.5742C124.514 35.6133 124.618 35.6458 124.684 35.6719C127.001 36.4141 128.16 37.5339 128.16 39.0312C128.16 39.9557 127.77 40.7435 126.988 41.3945C126.22 42.0326 125.126 42.3516 123.707 42.3516C122.613 42.3516 121.637 42.1107 120.777 41.6289C119.931 41.1471 119.28 40.4896 118.824 39.6562Z" fill="#0E0624"/>
<g clip-path="url(#clip0)">
<path d="M16.0323 7.84265L13.3789 10.496C18.5974 15.7145 17.4725 14.5896 22.6657 19.7828L27.9725 25.0896L30.6259 22.4363L16.0323 7.84265Z" fill="#F8C71D"/>
<path d="M4.09281 19.783L1.43945 22.4363L16.0331 37.0299L18.6864 34.3766C13.4962 29.1864 9.49415 25.1843 4.09281 19.783Z" fill="#F8C71D"/>
<path d="M21.3394 21.1094L17.3594 17.1294L10.726 23.7628L14.706 27.7428L21.3394 21.1094Z" fill="#F8C71D"/>
<path d="M0 29.1508L2.65336 31.8042L0 34.4575L3.9801 38.4376L6.63347 35.7843L9.28683 38.4376L12.0525 35.7032L2.76568 26.4164L0 29.1508Z" fill="#F8C71D"/>
<path d="M32.02 15.7035L29.3666 13.0502L32.02 10.441L27.9957 6.41669L25.3865 9.07005L22.7332 6.41669L20.0117 9.16936L29.2986 18.4562L32.02 15.7035Z" fill="#F8C71D"/>
</g>
<path d="M44 0L44 46" stroke="#0E0624"/>
<defs>
<clipPath id="clip0">
<rect width="32.021" height="32.021" fill="white" transform="translate(0 6.41669)"/>
</clipPath>
</defs>
</svg>
