<svg width="197" height="72" viewBox="0 0 197 72" fill="none" xmlns="http://www.w3.org/2000/svg">
<path d="M102.938 27.6953L104.672 27.0859C105.719 28.8984 107.344 29.8047 109.547 29.8047C110.766 29.8047 111.758 29.5078 112.523 28.9141C113.289 28.3203 113.672 27.5078 113.672 26.4766C113.672 25.9609 113.562 25.5078 113.344 25.1172C113.125 24.7109 112.773 24.3594 112.289 24.0625C111.82 23.7656 111.383 23.5312 110.977 23.3594C110.57 23.1875 110.016 22.9844 109.312 22.75C108.75 22.5625 108.352 22.4297 108.117 22.3516C107.883 22.2734 107.508 22.1328 106.992 21.9297C106.492 21.7266 106.117 21.5469 105.867 21.3906C105.633 21.2344 105.336 21.0234 104.977 20.7578C104.617 20.4766 104.352 20.1953 104.18 19.9141C104.023 19.6328 103.875 19.2969 103.734 18.9062C103.609 18.5 103.547 18.0703 103.547 17.6172C103.547 16.2266 104.078 15.1172 105.141 14.2891C106.203 13.4453 107.625 13.0234 109.406 13.0234C110.766 13.0234 111.945 13.3359 112.945 13.9609C113.961 14.5859 114.688 15.3672 115.125 16.3047L113.531 16.8672C112.609 15.3672 111.219 14.6172 109.359 14.6172C108.141 14.6172 107.188 14.8906 106.5 15.4375C105.812 15.9844 105.469 16.7109 105.469 17.6172C105.469 18.0234 105.562 18.4062 105.75 18.7656C105.938 19.1094 106.141 19.3906 106.359 19.6094C106.594 19.8125 106.961 20.0391 107.461 20.2891C107.977 20.5234 108.375 20.6953 108.656 20.8047C108.953 20.8984 109.43 21.0547 110.086 21.2734C110.242 21.3203 110.359 21.3594 110.438 21.3906C111.203 21.6406 111.844 21.8828 112.359 22.1172C112.875 22.3516 113.406 22.6641 113.953 23.0547C114.5 23.4453 114.906 23.9219 115.172 24.4844C115.453 25.0312 115.594 25.6719 115.594 26.4062C115.594 27.9844 115.039 29.2188 113.93 30.1094C112.836 30.9844 111.359 31.4219 109.5 31.4219C107.906 31.4219 106.555 31.0859 105.445 30.4141C104.336 29.7422 103.5 28.8359 102.938 27.6953ZM118.223 19.9141V18.3906H120.427V14.3594H122.255V18.3906H125.583V19.9141H122.255V27.2969C122.255 28.0781 122.403 28.6328 122.7 28.9609C122.997 29.2891 123.473 29.4531 124.13 29.4531H125.583V31H123.895C121.583 31 120.427 29.8203 120.427 27.4609V19.9141H118.223ZM128.541 24.6016C128.541 22.6328 129.072 21.0391 130.134 19.8203C131.197 18.5859 132.572 17.9688 134.259 17.9688C135.978 17.9688 137.33 18.5703 138.314 19.7734C139.298 20.9609 139.791 22.4844 139.791 24.3438C139.791 24.5625 139.775 24.875 139.744 25.2812H130.369C130.369 26.5469 130.72 27.6328 131.423 28.5391C132.127 29.4453 133.103 29.8984 134.353 29.8984C135.166 29.8984 135.884 29.7109 136.509 29.3359C137.134 28.9453 137.619 28.4297 137.962 27.7891L139.509 28.2578C139.119 29.1797 138.486 29.9375 137.611 30.5312C136.736 31.125 135.65 31.4219 134.353 31.4219C132.603 31.4219 131.197 30.7969 130.134 29.5469C129.072 28.2969 128.541 26.6484 128.541 24.6016ZM130.416 23.8984H137.962C137.962 22.6641 137.627 21.625 136.955 20.7812C136.283 19.9219 135.384 19.4922 134.259 19.4922C133.119 19.4922 132.197 19.9297 131.494 20.8047C130.806 21.6797 130.447 22.7109 130.416 23.8984ZM143.85 31V18.3906H145.584V20.2188C145.834 19.6562 146.248 19.1406 146.827 18.6719C147.405 18.2031 148.147 17.9688 149.053 17.9688C149.725 17.9688 150.319 18.0781 150.834 18.2969V19.9375C150.272 19.7188 149.678 19.6094 149.053 19.6094C147.991 19.6094 147.162 20.0078 146.569 20.8047C145.975 21.6016 145.678 22.6562 145.678 23.9688V31H143.85ZM154.12 31V12.7891H155.902V31H154.12ZM161.32 15.5547V13.1875H163.617V15.5547H161.32ZM161.602 31V18.3906H163.383V31H161.602ZM168.778 31V18.3906H170.559V20.5469H170.583C170.77 19.9219 171.231 19.3359 171.966 18.7891C172.7 18.2422 173.575 17.9688 174.591 17.9688C175.762 17.9688 176.723 18.3359 177.473 19.0703C178.239 19.8047 178.622 21.0625 178.622 22.8438V31H176.794V23.1484C176.794 20.7109 175.919 19.4922 174.169 19.4922C173.2 19.4922 172.364 19.8828 171.661 20.6641C170.958 21.4453 170.606 22.3828 170.606 23.4766V31H168.778ZM184.416 24.4609C184.416 25.9453 184.744 27.1484 185.4 28.0703C186.056 28.9766 186.916 29.4297 187.978 29.4297C189.056 29.4297 189.908 28.9922 190.533 28.1172C191.173 27.2422 191.494 26.0156 191.494 24.4375C191.494 22.9062 191.166 21.7031 190.509 20.8281C189.869 19.9375 189.041 19.4922 188.025 19.4922C186.931 19.4922 186.056 19.9609 185.4 20.8984C184.744 21.8203 184.416 23.0078 184.416 24.4609ZM182.588 24.4844C182.588 22.5312 183.072 20.9609 184.041 19.7734C185.009 18.5703 186.259 17.9688 187.791 17.9688C188.759 17.9688 189.548 18.2188 190.158 18.7188C190.783 19.2188 191.228 19.7969 191.494 20.4531V18.3906H193.275V29.5234C193.275 31.9141 192.845 33.6875 191.986 34.8438C191.142 36.0156 189.791 36.6016 187.931 36.6016C185.916 36.6016 184.353 35.8359 183.244 34.3047L184.509 33.4844C185.478 34.5781 186.634 35.125 187.978 35.125C189.088 35.125 189.947 34.6875 190.556 33.8125C191.181 32.9531 191.494 31.7969 191.494 30.3438V28.5391C191.166 29.2422 190.689 29.8203 190.064 30.2734C189.455 30.7266 188.713 30.9531 187.838 30.9531C186.244 30.9531 184.97 30.3516 184.017 29.1484C183.064 27.9297 182.588 26.375 182.588 24.4844Z" fill="#F3F3F3"/>
<path d="M104.086 58.9434V40.4043H115.898V43.0527H107.18V48.3496H114.984V50.9512H107.18V58.9434H104.086ZM119.302 58.9434V39.7949H122.255V58.9434H119.302ZM126.15 52.123C126.15 49.9512 126.744 48.2246 127.931 46.9434C129.134 45.6465 130.642 44.998 132.455 44.998C134.236 44.998 135.705 45.6465 136.861 46.9434C138.017 48.2402 138.595 49.9277 138.595 52.0059C138.595 52.4121 138.572 52.8105 138.525 53.2012H129.15C129.15 54.2324 129.455 55.123 130.064 55.873C130.689 56.6074 131.541 56.9746 132.619 56.9746C133.369 56.9746 134.025 56.7949 134.587 56.4355C135.166 56.0605 135.603 55.584 135.9 55.0059L138.384 55.8496C137.947 56.8496 137.236 57.6855 136.252 58.3574C135.267 59.0293 134.041 59.3652 132.572 59.3652C130.681 59.3652 129.134 58.709 127.931 57.3965C126.744 56.084 126.15 54.3262 126.15 52.123ZM129.197 51.1152H135.572C135.572 50.084 135.298 49.209 134.752 48.4902C134.205 47.7559 133.439 47.3887 132.455 47.3887C131.47 47.3887 130.681 47.7637 130.087 48.5137C129.509 49.248 129.212 50.1152 129.197 51.1152ZM140.428 58.9434L145.233 52.0059L140.662 45.4199H144.248L145.983 48.3496C146.42 49.1309 146.733 49.6777 146.92 49.9902H147.014C147.264 49.5371 147.569 48.9902 147.928 48.3496L149.662 45.4199H153.272L148.702 52.0059L153.53 58.9434H150.014L148.022 55.6855C147.897 55.4824 147.725 55.2012 147.506 54.8418C147.287 54.4824 147.123 54.2012 147.014 53.998H146.92C146.858 54.1074 146.522 54.6699 145.912 55.6855L143.92 58.9434H140.428ZM158.292 52.1934C158.292 53.7559 158.612 54.9199 159.253 55.6855C159.894 56.4512 160.644 56.834 161.503 56.834C162.347 56.834 163.089 56.4512 163.73 55.6855C164.37 54.9199 164.691 53.7559 164.691 52.1934C164.691 50.5996 164.37 49.4277 163.73 48.6777C163.089 47.9121 162.347 47.5293 161.503 47.5293C160.659 47.5293 159.909 47.9121 159.253 48.6777C158.612 49.4277 158.292 50.5996 158.292 52.1934ZM155.245 52.1934C155.245 50.1777 155.777 48.4746 156.839 47.084C157.902 45.6934 159.456 44.998 161.503 44.998C163.534 44.998 165.081 45.6934 166.144 47.084C167.206 48.4746 167.737 50.1777 167.737 52.1934C167.737 52.8184 167.675 53.4434 167.55 54.0684C167.441 54.6934 167.237 55.334 166.941 55.9902C166.644 56.6309 166.269 57.2012 165.816 57.7012C165.362 58.1855 164.761 58.584 164.011 58.8965C163.277 59.209 162.441 59.3652 161.503 59.3652C160.581 59.3652 159.745 59.2168 158.995 58.9199C158.261 58.6074 157.659 58.2168 157.191 57.748C156.737 57.2637 156.355 56.7012 156.042 56.0605C155.745 55.4043 155.534 54.7637 155.409 54.1387C155.3 53.498 155.245 52.8496 155.245 52.1934ZM171.375 58.9434V45.4199H174.234V46.873C174.531 46.373 174.953 45.9355 175.5 45.5605C176.062 45.1855 176.727 44.998 177.492 44.998C178.211 44.998 178.797 45.0996 179.25 45.3027V47.998C178.656 47.8105 178.07 47.7168 177.492 47.7168C176.477 47.7168 175.695 48.1152 175.148 48.9121C174.617 49.6934 174.352 50.7402 174.352 52.0527V58.9434H171.375ZM180.989 56.1309L183.122 54.8887C184.059 56.2637 185.278 56.9512 186.778 56.9512C187.512 56.9512 188.091 56.8105 188.512 56.5293C188.95 56.2324 189.169 55.8418 189.169 55.3574C189.169 54.9668 188.989 54.623 188.63 54.3262C188.286 54.0293 187.919 53.8105 187.528 53.6699C187.137 53.5137 186.552 53.3105 185.77 53.0605C185.63 53.0137 185.528 52.9824 185.466 52.9668C184.903 52.7793 184.427 52.5996 184.036 52.4277C183.661 52.2402 183.262 51.998 182.841 51.7012C182.419 51.3887 182.098 51.0059 181.88 50.5527C181.661 50.084 181.552 49.5449 181.552 48.9355C181.552 47.748 182.052 46.7949 183.052 46.0762C184.052 45.3574 185.294 44.998 186.778 44.998C187.887 44.998 188.934 45.2949 189.919 45.8887C190.903 46.4668 191.637 47.209 192.122 48.1152L190.153 49.3105C189.231 48.0449 188.114 47.4121 186.802 47.4121C186.083 47.4121 185.528 47.5605 185.137 47.8574C184.762 48.1387 184.575 48.5137 184.575 48.9824C184.575 49.373 184.739 49.7246 185.067 50.0371C185.411 50.334 185.762 50.5527 186.122 50.6934C186.481 50.834 186.989 51.0137 187.645 51.2324C187.817 51.2793 187.942 51.3184 188.02 51.3496C190.802 52.2402 192.192 53.584 192.192 55.3809C192.192 56.4902 191.723 57.4355 190.786 58.2168C189.864 58.9824 188.552 59.3652 186.848 59.3652C185.536 59.3652 184.364 59.0762 183.333 58.498C182.317 57.9199 181.536 57.1309 180.989 56.1309Z" fill="#F3F3F3"/>
<path d="M29.0404 10.583L24.2344 15.3891C33.6868 24.8415 31.6492 22.8039 41.0557 32.2104L50.668 41.8227L55.474 37.0166L29.0404 10.583Z" fill="#F8C71D"/>
<path d="M7.41349 32.2109L2.60742 37.017L29.041 63.4506L33.8471 58.6446C24.446 49.2435 17.197 41.9945 7.41349 32.2109Z" fill="#F8C71D"/>
<path d="M38.6525 34.6134L31.4434 27.4043L19.4282 39.4195L26.6373 46.6286L38.6525 34.6134Z" fill="#F8C71D"/>
<path d="M0 49.1785L4.80607 53.9845L0 58.7906L7.20922 65.9998L12.0153 61.1938L16.8214 65.9998L21.8309 61.0469L5.00952 44.2256L0 49.1785Z" fill="#F8C71D"/>
<path d="M58.0008 24.8214L53.1947 20.0153L58.0008 15.2893L50.7115 8L45.9855 12.8061L41.1794 8L36.25 12.986L53.0715 29.8074L58.0008 24.8214Z" fill="#F8C71D"/>
<path d="M80 0L80 72" stroke="#F3F3F3" stroke-width="2"/>
</svg>
